<svg width="158" height="158" viewBox="0 0 158 158" fill="none" xmlns="http://www.w3.org/2000/svg">
<path fill-rule="evenodd" clip-rule="evenodd" d="M158 79C158 122.63 122.63 158 79 158C35.3695 158 0 122.63 0 79C0 35.3695 35.3695 0 79 0C122.63 0 158 35.3695 158 79ZM71.624 34C84.8507 34 95.0053 36.3467 102.088 41.04C109.171 45.648 112.712 53.2427 112.712 63.824C112.712 74.4907 109.128 82.2133 101.96 86.992C94.792 91.6853 84.552 94.032 71.24 94.032H64.968V123.728H45V36.304C49.352 35.4507 53.96 34.8533 58.824 34.512C63.688 34.1707 67.9547 34 71.624 34ZM72.904 51.024C71.4533 51.024 70.0027 51.0667 68.552 51.152C67.1867 51.2373 65.992 51.3227 64.968 51.408V77.008H71.24C78.152 77.008 83.3573 76.0693 86.856 74.192C90.3547 72.3147 92.104 68.816 92.104 63.696C92.104 61.2213 91.6347 59.1733 90.696 57.552C89.8427 55.9307 88.5627 54.6507 86.856 53.712C85.2347 52.688 83.2293 52.0053 80.84 51.664C78.4507 51.2373 75.8053 51.024 72.904 51.024ZM107 124C110.314 124 113 121.314 113 118C113 114.686 110.314 112 107 112C103.686 112 101 114.686 101 118C101 121.314 103.686 124 107 124Z" fill="black"/>
</svg>
