<svg xmlns="http://www.w3.org/2000/svg" height="48" viewBox="0 -960 960 960" width="48"><path d="M217.23-280.692q-81.828 0-138.952-58.737-57.124-58.737-57.124-141.361 0-82.042 57.244-140.338 57.244-58.295 138.749-58.295 32.147 0 62.096 11.053 29.949 11.053 54.411 33.985l96.808 85.116-21.539 20.5-93.577-84.154q-21.577-17.962-46.554-27.135-24.978-9.173-51.824-9.173-70.3 0-117.96 49.317-47.662 49.317-47.662 119.067 0 70.336 47.55 120.149 47.548 49.813 118.016 49.813 26.703 0 51.799-9.23 25.097-9.231 46.507-26.94l311.577-287.313q23.424-22.919 53.647-33.987 30.222-11.068 62.101-11.068 82.167 0 139.293 58.185 57.126 58.186 57.126 139.663 0 82.894-57.244 141.889-57.244 58.994-138.98 58.994-32.137 0-61.707-11.707t-54.57-32.332L532.538-411.5l20.77-20.385 92.161 84.77q19.493 18.807 44.896 27.519 25.404 8.711 52.62 8.711 70.502 0 118.143-50.047 47.641-50.047 47.641-120.81 0-69.349-48.266-118.419-48.265-49.07-117.515-49.07-26.62 0-51.765 9.212-25.146 9.211-45.556 27.421L333.321-324.517q-23.925 22.689-54.137 33.257-30.213 10.568-61.954 10.568Z"/></svg>