<svg xmlns="http://www.w3.org/2000/svg" height="48" viewBox="0 -960 960 960" width="48"><path d="M176.692-270.154q-6.808 0-11.173-4.427-4.365-4.428-4.365-11.327 0-6.015 4.365-10.227 4.365-4.211 11.173-4.211h607.5q5.924 0 10.289 4.427 4.365 4.428 4.365 10.443 0 6.899-4.365 11.111-4.365 4.211-10.289 4.211h-607.5Zm0-194.807q-6.808 0-11.173-4.428-4.365-4.427-4.365-11.327 0-6.015 4.365-10.226 4.365-4.212 11.173-4.212h607.5q5.924 0 10.289 4.428 4.365 4.427 4.365 10.442 0 6.899-4.365 11.111-4.365 4.212-10.289 4.212h-607.5Zm0-194.808q-6.808 0-11.173-4.428-4.365-4.427-4.365-11.327 0-6.015 4.365-10.226 4.365-4.212 11.173-4.212h607.5q5.924 0 10.289 4.428 4.365 4.427 4.365 10.442 0 6.9-4.365 11.111-4.365 4.212-10.289 4.212h-607.5Z"/></svg>