<svg xmlns="http://www.w3.org/2000/svg" height="48" viewBox="0 -960 960 960" width="48"><path d="M295.564-81.154q-22.245 0-38.443-16.198-16.198-16.198-16.198-38.418v-688.459q0-22.221 16.198-38.419 16.198-16.198 38.443-16.198h368.872q22.244 0 38.443 16.198 16.198 16.198 16.198 38.419v688.459q0 22.22-16.198 38.418-16.199 16.198-38.443 16.198H295.564ZM271.115-235.96v100q0 9.23 7.693 16.923 7.692 7.692 16.923 7.692h368.538q9.231 0 16.923-7.692 7.693-7.693 7.693-16.923v-100h-417.77ZM480.136-148q10.653 0 18.278-7.363 7.624-7.362 7.624-18.413 0-11.052-7.76-18.676-7.761-7.625-18.414-7.625-10.653 0-18.278 7.757-7.624 7.757-7.624 18.405 0 11.435 7.76 18.675 7.761 7.24 18.414 7.24ZM271.115-266.154h417.77v-496.692h-417.77v496.692Zm0-526.885h417.77v-31q0-9.23-7.693-16.923-7.692-7.692-16.923-7.692H295.731q-9.231 0-16.923 7.692-7.693 7.693-7.693 16.923v31Zm0 557.078V-111.346v-124.615Zm0-557.078v-55.615V-793.039Z"/></svg>