<svg width="40" height="44" viewBox="0 0 40 44" fill="none" xmlns="http://www.w3.org/2000/svg">
<path d="M9.31097 14.105H1.2809C0.924516 14.105 0.635742 14.4227 0.635742 14.8146V43.1878C0.635742 43.5798 0.924516 43.8974 1.2809 43.8974H9.31097C9.66735 43.8974 9.95613 43.5798 9.95613 43.1878V14.8146C9.95613 14.4227 9.66735 14.105 9.31097 14.105Z" fill="black"/>
<path d="M5.29884 0C2.37703 0 0 2.61156 0 5.82159C0 9.03303 2.37703 11.6456 5.29884 11.6456C8.21832 11.6456 10.5934 9.03289 10.5934 5.82159C10.5935 2.61156 8.21832 0 5.29884 0Z" fill="black"/>
<path d="M29.736 13.3998C26.5108 13.3998 24.1267 14.9247 22.6806 16.6573V14.8146C22.6806 14.4227 22.3919 14.105 22.0355 14.105H14.3453C13.9889 14.105 13.7001 14.4227 13.7001 14.8146V43.1878C13.7001 43.5797 13.9889 43.8974 14.3453 43.8974H22.3578C22.7142 43.8974 23.003 43.5797 23.003 43.1878V29.1496C23.003 24.4191 24.1712 22.5761 27.1694 22.5761C30.4347 22.5761 30.6942 25.5306 30.6942 29.393V43.1879C30.6942 43.5799 30.983 43.8975 31.3394 43.8975H39.3548C39.7112 43.8975 40 43.5799 40 43.1879V27.6247C40 20.5906 38.7805 13.3998 29.736 13.3998Z" fill="black"/>
</svg>
