<svg width="40" height="33" viewBox="0 0 40 33" fill="none" xmlns="http://www.w3.org/2000/svg">
<path d="M40 8.4325V26.25C40 27.9076 39.3415 29.4973 38.1694 30.6694C36.9973 31.8415 35.4076 32.5 33.75 32.5H6.25C4.5924 32.5 3.00269 31.8415 1.83058 30.6694C0.65848 29.4973 0 27.9076 0 26.25V8.4325L19.365 19.8275C19.5574 19.941 19.7767 20.0008 20 20.0008C20.2233 20.0008 20.4426 19.941 20.635 19.8275L40 8.4325ZM33.75 7.73817e-08C35.2879 -0.00024179 36.7718 0.566516 37.918 1.59185C39.0642 2.61718 39.7921 4.0291 39.9625 5.5575L20 17.3L0.0375003 5.5575C0.207896 4.0291 0.93581 2.61718 2.08199 1.59185C3.22816 0.566516 4.71213 -0.00024179 6.25 7.73817e-08H33.75Z" fill="black"/>
</svg>
